<svg id="visual" viewBox="0 0 900 600" width="900" height="600" xmlns="http://www.w3.org/2000/svg" xmlns:xlink="http://www.w3.org/1999/xlink" version="1.1"><path d="M0 132L21.5 132C43 132 86 132 128.8 141.8C171.7 151.7 214.3 171.3 257.2 172.2C300 173 343 155 385.8 141.8C428.7 128.7 471.3 120.3 514.2 115C557 109.7 600 107.3 642.8 119C685.7 130.7 728.3 156.3 771.2 159.8C814 163.3 857 144.7 878.5 135.3L900 126L900 0L878.5 0C857 0 814 0 771.2 0C728.3 0 685.7 0 642.8 0C600 0 557 0 514.2 0C471.3 0 428.7 0 385.8 0C343 0 300 0 257.2 0C214.3 0 171.7 0 128.8 0C86 0 43 0 21.5 0L0 0Z" fill="#F9F9F9" stroke-linecap="round" stroke-linejoin="miter"></path></svg>